/* XPM */
static char *bf426c8e80184f9b948bcf42bc88c1030fbOY9NrMq5faxXi[] = {
/* columns rows colors chars-per-pixel */
"64 64 196 2 ",
"   c black",
".  c #13110F",
"X  c #191615",
"o  c #1D1815",
"O  c #1D1C1B",
"+  c #261B18",
"@  c #211E1C",
"#  c #23201F",
"$  c #2B211D",
"%  c #1F1F20",
"&  c #1F2021",
"*  c #18242A",
"=  c #252424",
"-  c #292625",
";  c #2B2927",
":  c #282728",
">  c #23292C",
",  c #2D2C2B",
"<  c #312A27",
"1  c #312F2E",
"2  c #32302F",
"3  c #2F2F30",
"4  c #302F30",
"5  c #2E3031",
"6  c #343333",
"7  c #393735",
"8  c #3B3836",
"9  c #353738",
"0  c #383738",
"q  c #363839",
"w  c #3A3A39",
"e  c #522900",
"r  c #692700",
"t  c #6B2E00",
"y  c #6C3400",
"u  c #6D3A00",
"i  c #6D3D0D",
"p  c #743700",
"a  c #7C3200",
"s  c #733B00",
"d  c #793C00",
"f  c #6A3F17",
"g  c #783A10",
"h  c #44342A",
"j  c #4D3A2D",
"k  c #583D29",
"l  c #433C37",
"z  c #413E3C",
"x  c #3F413F",
"c  c #764405",
"v  c #7D4500",
"b  c #75420C",
"n  c #7B460E",
"m  c #6E4115",
"M  c #6D411A",
"N  c #734416",
"B  c #7A4715",
"V  c #7C4915",
"C  c #73451A",
"Z  c #7A4719",
"A  c #77481A",
"S  c #7D4A1A",
"D  c #44413D",
"F  c #49413D",
"G  c #5C4430",
"H  c #644020",
"J  c #64462A",
"K  c #784821",
"L  c #794B3B",
"P  c #7D5433",
"I  c #7C5539",
"U  c #7F593D",
"Y  c #444342",
"T  c #474648",
"R  c #4C4B4B",
"E  c #504F4F",
"W  c #5F554F",
"Q  c #535354",
"!  c #585757",
"~  c #5B5956",
"^  c #5C5A5A",
"/  c #7D5448",
"(  c #615B57",
")  c #60605E",
"_  c #656463",
"`  c #666767",
"'  c #6A6867",
"]  c #6D6C6B",
"[  c #7A6E67",
"{  c #726E6C",
"}  c #74716F",
"|  c #7A706D",
" . c #757474",
".. c #797674",
"X. c #7A7877",
"o. c #76797B",
"O. c #7C7C7B",
"+. c #803600",
"@. c #863C00",
"#. c #834301",
"$. c #894600",
"%. c #854A02",
"&. c #8B4C00",
"*. c #83460C",
"=. c #864B0D",
"-. c #894E0E",
";. c #8E5102",
":. c #8B510F",
">. c #925202",
",. c #91530A",
"<. c #844610",
"1. c #864D13",
"2. c #8A4F11",
"3. c #834D1A",
"4. c #855116",
"5. c #8C5311",
"6. c #86511A",
"7. c #8B5219",
"8. c #915613",
"9. c #915812",
"0. c #925619",
"q. c #814D2D",
"w. c #875428",
"e. c #8B592E",
"r. c #915923",
"t. c #835632",
"y. c #845537",
"u. c #8C5B32",
"i. c #855A3B",
"p. c #8A5D3D",
"a. c #855E42",
"s. c #895E41",
"d. c #855D4C",
"f. c #815F55",
"g. c #8B6245",
"h. c #8A634E",
"j. c #91684C",
"k. c #856656",
"l. c #8C6A54",
"z. c #866B5B",
"x. c #8C6D5B",
"c. c #916C54",
"v. c #906F5C",
"b. c #8F715F",
"n. c #947156",
"m. c #92715C",
"M. c #886E62",
"N. c #8D7364",
"B. c #8C746A",
"V. c #88786E",
"C. c #927664",
"Z. c #907769",
"A. c #937A6B",
"S. c #847B75",
"D. c #8D7C74",
"F. c #817E7E",
"G. c #8B7E7A",
"H. c #927D73",
"J. c #7F807E",
"K. c #82817F",
"L. c #8D817C",
"P. c #938277",
"I. c #92847C",
"U. c #998578",
"Y. c #7E7E80",
"T. c #7E8182",
"R. c #848483",
"E. c #8A8684",
"W. c #8B8987",
"Q. c #868789",
"!. c #888788",
"~. c #878889",
"^. c #8D8C8B",
"/. c #928681",
"(. c #928984",
"). c #998B83",
"_. c #928E8C",
"`. c #998F8B",
"'. c #93908E",
"]. c #9A928D",
"[. c #8E8F90",
"{. c #908F90",
"}. c #8F9191",
"|. c #949493",
" X c #999694",
".X c #979897",
"XX c #9A9997",
"oX c #979798",
"OX c #969999",
"+X c #9B9B9B",
"@X c #A19F9D",
"#X c #A1A09E",
"$X c #9E9FA0",
"%X c #9FA1A1",
"&X c #A2A2A1",
"*X c #AAA9A8",
/* pixels */
"^.O.O.X.o.X. .o.X.O.O.X.o.O.O.X.X.O.X.X.O.X. .O.O.O.O. .]  .X.O.X.O.O.Y.O.O.O.O.X.O.R.O.O.O.O.O.X...| .. .X.X.X.O.O.o.} ] ....^.",
"!.K.^.^.~.^.}.R.^.'.}.[.^.}.}.^.^.^.[.^.^.^.~.^.^.'.[.~.O.R.^.}.}.|.|.}.|.|.|.}.^.^.{.^.oX^.|.^.W.E.E.K.^.}.^.[.W.|.^.^.!.K.!.|.",
"R.~.@XXXXXXX'.u.A.&X#XXX+X+X$X+X+X+X+X+X+X+X+X+X#X+X+XoX^._.+X+X+X+X&X&X$X$X+X+XoX+X@X+X+X+X%X&XXX_.(.`.XXXX%X).r.].#XXXXX XXX|.",
"R.!.+XXXOX`.e.$.#.Z.+XoXOX+XXX[.[..X+X.X|.+X.X.X+XOXOX'.!.^.OX+XXX+X+X$XXXOXXXOX|.oX@X|.XXXX+XoX_.+X|._.oX+X/.&.%.&.).OX.X+X+X|.",
"R.R.+X+X'.e.$.0.B p A.+XXXOX+XT } +X.X.X.X+X|.|.XXXXOX^.^.|.OX+X+X$X+X+XOXXX+X+X X|.+X^.OXOX+X_ ! +X@X@X XU.&.;.m n ;.L.OXXX#X|.",
"R.O.+X].e.%.0.-.1.f d A.$XOX+X^.[.+X.X.X'.+X X.X+X+X+X|.^.|.XX+X+X+X+X+XoXoX+X+XoX$X+XR.XXXXXX^.^.+XXX#X/.&.,.2.=.m %.%.H.+XXX|.",
"R.T.'.e.&.0.-.-.2.=.N p H.$XoXOX.X.X|.|.|..X X.XOXOX$X|.^.'.oXXX+X&XoXXXoXOXXX$XXX|.^.F.XXOXoXXXXX+X|.I.:.,.5.=.:.n m =.&.I.+X}.",
"R.~.C.@.r.-.-.-.=.-.1.m d A.+X|.|..X|.|.'..X'.|.+X+X$X|.^.|.|.+X$X&XXXoXoXXX+X$X X'.'.R.|.OXOXOX X#XU.&.,.5.-.5.:.:.=.C #.j.OX|.",
"R.R.+Xx.y 3.:.:.2.-.-.5.N d Z.OX|.OX|.|.[.|.'..XoX#X%X'.^.'.XX+X$X$X+X+XXXXX+X&X+XXX+XR.XXXXXXXX$X).$.,.2.*.=.2.-.=.7.u I XXXX|.",
"~.R.XXoXz.y 3.5.5.5.-.5.5.C d Z.+X|.}.|.[.oX'.|..X+X#X.X'.'.@X#X&X$X@X+X+XXX+X#XXX#X@XR.XXXXOX+X/.&.;.2.2.*.*.=.-.4.c P ].XX X|.",
"E.R. X|.|.k.y 6.-.:.:.5.5.5.N d A.OX^.[.!.J.X.O.R.R.K.J.J.J.~.!.R.E.R.R.K.R.R.K.K.R.E.K.@XXXXXI.$.,.1.*.2.-.=.=.7.y P (.#XXX X X",
"R.R. X|.|.oXk.y 3.-.-.:.-.5.5.N v N.'.|.|..X^.^.|.oX'.[.|.^..X.XOX|._.|.|.oX.X'.'.XX_. X#XXXP.;.,.2.*.-.=.*.=.3.y I (._.+XXX XXX",
"E.R. X'.^.|.|.z.p 6.:.-.2.5.:.3.u 4.'.|.|.~.O.X.O.K.O.O.o.R.[.'.^.^.O.O.K.R.R.O.O.!.L.^..X@Xj.d 3.-.=.5.-.-.1.y P ].XX].XX|.].|.",
"E.R. X|.|.|.|.OXz.y 3.:.-.:.1.u w.L.J. . . .X...O.K.O.O.J.J.J.Q.T.R.T.O.O.O.R.O.O.K.K.O...K.W.i.p S =.=.*.3.y I ].'. X@X].]. X|.",
"K.X. XoX^.|.^.}..Xx.y S :.1.u S | X.o.^.[..X|.[..X.XOX|./.C.n.n.c.n.H./.|.+XXX|.'.XX@X X'.K.} [ i.p B -.3.y y.'. X`.(.XX@X@X@X].",
"^.F.+XXX}.|.|.|.+XXXz.y S c 1.[ R.^.|.^.^.+X'.|.+X#X/.g.&.;.;.%.%.%.%.;.l.XX&XXX.XXX#X'._.@X'.R.S.P p S u g. XoX].'.'.XXXX@X@X'.",
"W.W.#XXXoX|.|.|.+XXX@XM.r 3.| ~.XXOX|.|.oXXXoX|.$XA.%.;.7.7.6.7.7.S V B d 1.I.$XXX+X#X+X#X#X#X#X|.X.t.y U +X+XoX X(. XXXXX+X+X X",
"^._.#X+XoX'.}.|.XX@XXX$XN.M.R. X+XOXoX+X+X+X|.|.C.$.0.0.:.:.:.:.:.-.:.-.C c v I.+X#X&X#X#X#X#X#X@X}.X.l.+X+X+X+X X].XX+X+X&X#X+X",
"..] { ] _ ) O.XXoX XoX&X|.o.|.oX+X+XoXoX+X+X|.L.$.0.9.:.5.9.:.:.-.-.-.-.-.B c 1.'.#X&X#X@X#XXX#X#XXX!.^.+X$X#XXXXXW.{ ] ] ] }  .",
"w 8 8 w w   ] }.{._.+X$Xo.R.|.Y.+X+XoX+X&X+XOXu.&.8.5.5.5.:.:.:.5.-.:.:.:.:.A u c.%X#XXXXXXX+XXX'.^.|.K.|.#X+X.X XS., w w $ 8 x ",
"Y 1 7 z x O ! O.K.!.oX|. .!.[.^.oX+XoX%X+X$X/.&.7.:.5.9.5.5.5.=.-.:.5.5.5.:.5.m v  XOX|.XX+X^.W. XXX|.R.^.+XOXoX|.O., T w , w R ",
"6 - ; , 3 . ! O.X._.+X!. .{.W.!.oXXXoX+XOX$Xm.&.7.-.:.:.:.5.-.-.-.-.5.-.5.5.:.V p U.#X|.|.W.W.E.'.|.'.W.~.XX|.OXoXX.; R 1 , 7 7 ",
"1 < < , , X ! X.R.^.|.X.X.{.^.R.|.[.O.|.XX+Xe.&.1.-.:.5.:.=.-.-.=.:.5.:.5.5.9.6.p m.|.'.'.W.^.^.(.'.W.'.^.'.[.'.'.} 1 6 ; ; 2 , ",
"8 $ < 4 4 @ ^ R.R._.{.{ X.[.W.E.F.0 , ] oX Xw.%.1.-.9.5.5.=.:.2.=.:.5.:.5.9.9.0.u c.|.^.'. XW.L.W.W.'.^.R.!.E.'.^...7 z 8 2 2 6 ",
"6 + + 6 7 o _ R.R.|.|.} ..W.E._._ + w ^ ^._.w.%.-.:.:.5.-.-.-.=.=.=.-.-.5.9.5.7.u l.+X_.'.'.L.G.L. X|.|.~.W.K.W.W...8 Q T w 7 8 ",
"F + $ 6 8 = _ !.E.'.|. ...R.^.|.R.R E K.^.W.w.%.1.:.:.5.-.=.=.=.=.:.-.:.9.5.5.4.u j.}.'.'.+XW.G.L..X|.'._._.W.W.E.F.7 Y F 7 6 6 ",
"8 2 < 8 z ; _ ^.^._.'.X.} R.^.^._.E.R.|.^.^.g.#.V -.:.5.5.=.=.-.:.:.-.5.9.9.9.S c b.|.W.W.'.'.).K.'._._.W.W.L._.^.X.= 6 D 6 < < ",
"2 8 D l x 2 ] [.'.^.'.R.] F.^.R._.^.^.^.R.^.z.#.A -.:.:.-.=.=.:.:.:.9.:.5.9.9.B v I..XW._.W.|.XX'.'.XX^.W.W.W.W.W...# z F 2 2 8 ",
"l 7 w D Y 7 } '.^.|.|.'.{ X.^.O.|.^.^._.^._.E.-.b n :.:.-.-.-.5.:.:.:.:.9.5.4.c s. X|.'.(.'..X X_.^.@X_.W.^._.^.(.X.; x Y 2 8 6 ",
"l 7 7 D Y 2 ] ^.^.|.XX|.R.} ~.|.|.|.^.^.^._.'.M.$.M *.-.-.-.-.:.:.5.:.5.9.:.m c L..X.X'.'..X'.|.|.XXL._.'.'.'.'.W.} 2 x Y 2 6 l ",
"F F F F Y ,  .[.R.|.oXoXL. . .^.|.oX^._._.|._.^.g.v M B -.-.-.:.-.5.:.9.4.M d N.}..X X'. X+X].'. XXXL.P.|..X'..X'.} 2 6 D D D F ",
"R l z D 7 ; ' ^.^.'..XI.%.g. .X._.oX^.|.|.|._.|.'.j.#.i f V =.2.:.7.4.A u v C.|.^.XX`.L.'. XXX'.XX'.z.%.b.+X'.'.W.} # 1 x < < F ",
"R.} R.O.O.X.F.^.^.|./.>.n s a. .T.^.|.R.R.|._.'.XX+XC.-.p y y y u u u c u.I.+X.X'..X'.D.E.@XXX'.XXN.&.7.t C.XXoX(.L.| { | | { R.",
"R.K.XX XoX|.^.^.[.P.;.;.4.N d g.K.X.R.^.|.|.'.|..XXXoXE.M.s.t.y.t.p.n.U..X+XXX|.'.XX'.'. X.X[.|.N.&.0.2.N p B.XX_._._.(.{.(.(.{.",
"R.F. X|.|.|.^.[.S.>.;.1.-.:.N d h.^.K.K.R.R.R.^.}.^.^.~.R.O.E.(.L.K.~.|.'.'.|.W.W..X'._.'.'. XC.$.0.-.=.2.B y B.oX_.(.W.XX{._. X",
"R.R.oX'.|.|.|.H.;.;.1.=.-.-.:.N d h.|.oX^.'.^.^.|.|.^.R.^.K.Y.R.Q.J.R.'.|.|.|.^.W. X'.'.XXXXC.$.0.2.-.-.-.5.B p C.|._.(.XX{.`. X",
"E.R.|.|.|.OXD.&.,.2.1.=.=.=.-.3.y u.'.OXXXXX|.XX.XXXoX|.{.{.oX+X+XXXOX X+XXX+X|.'.#X X'. X+Xm.d Z =.-.-.-.2.2.B p Z. X|.XX(._.{.",
"L.R.|._. XI.&.-.1.<.=.=.-.-.3.y i.'.|.^.oX^.^.^.|.OX|.}.{.{.|.$XOXoX'._..X|.+X|.'..XXX X].'. Xl.y Z -.=.=.-.=.2.N y Z.@X(.]. X{.",
"K.O.|.oXG.&.,.2.=.=.-.-.-.3.y i.|..X^.|.oXoX{.|._.D.^.G.S.G.I.G.I.L.oXE.D.|.L.(.'..X@X@XXXK.L.|.m.t S =.-.-.-.-.5.B y A.@X+X@X`.",
"^.S.+XI.&.-.2.=.=.=.-.-.S y i.|.oX|.^.XXXXoX|.OXP.a d.L / d.N.s.k.a |.B.g H.a D.+X X@X@XXXE.'. X@Xv.y S -.2.-.-.-.2.Z d A.@XXX_.",
"^._.).%.n 1.-.-.5.-.-.S y i. XOX|.|.^.XX+XoX'.OXI.q.d.L M.f./.N.B.@._.|.d.H.K B.$XoX+X@X@X!.XX#X+X+Xx.t S =.=.=.-.-.5.N v A.+XXX",
"^.^.U.$.V b -.5.5.;.3.y g.XXOXoX.XoX^.oX+X.X'.OXI.+.h.L k.y.N.c.x.<./.H.d.V.@.k.$XoX$X@X#X!.XX#XXX+X Xl.y S -.2.-.:.B Z &.C.@XXX",
"^.W.&XP.&.B m -.:.S y p.XX#X#X}.[.XX[.oX.XoX}.oX X(._._.R.(._. X@X X|.`./.`.XX`. X+X&X@X#X^. X#X#X#X+X Xv.t Z =.-.b C &.C.@XXXXX",
"^.R.@X+XD.$.B b S y g.XX+X+X+X}..XXX'.OXXXoX'.oX$X&X$Xo.o.R.!.!.R.^.o.R.Y.{.&X$XoX@X#X$X@X!.XX@XXX@XXX@X+Xx.t S b C $.m.@XXX#X#X",
"+XE.R.oX|.H.&.S y y.+X%X%XOX[.OX+X+XoXOX+XOXoXXXOXR.^.Y.O.O.~.R.R.!.R.R.X.R.^.^.+X+X$X+X&X^. X$X X XoXXX@X+Xx.t K #.m.+XXX&X*X#X",
"&X@XF.R.|.OXH.#.p. X+X|.|.+XXX|.XXXX[.|.|.}.^.|.}.!.^.R.!.R.^.^.^.^.[.^.R.!.!.^.|.|. XOXXXR. X@X@X).'. X+X+X+Xx.+.m.+XXX#X*X@X@X",
"&X@X+XR.K.oXoXD._.|.oXR  .+X+X.X+X+X^.R.~.R.R.R.~.^.^.^.~.^.}.|.{.{.|.{._.^.[.^.!.!.^.^.^.^.OX+XXXXX].'.XX+X+X XH.+X+X&X*X@X+X&X",
"&X+XXX+XJ.J.|..XXX|.XX[.|.&X$X+X$X+X|.oX.X|.|.|.|.|.oX|.^.|.OX+XoX+X+X$XoXoXoXoXOXOX+XoX+X+X$XXXXX+X X X+X+X+XoX@XXX@X#X+X+X@X$X",
"R.R.R.R.K._  .K.R.R.R.R.R.R.!.R.R.R.R.R.R.R.R.O.O.R.T.O.X.R.R.R.R.R.Q.R.~.T.R.R.T.R.Q.R.R.Q.~.R.K.K.F.O.F.R.O.X.O.R.R.O.O.R.R.R.",
", , , = 1 , # = : : : X X @ & X O O @ ; ; ; - O = ; ; ; ; ; , : = : % % # & = : = = : : = # O & @ = % # O O = = % = = 6 4 , 4 4 ",
"7 7 6 7 7 1 6 6 6 9 9 9 6 6 6 , 6 5 6 7 6 6 9 6 2 9 9 w 6 9 6 9 6 6 5 5 1 1 6 6 6 6 7 q 6 6 6 6 5 3 6 4 6 1 9 6 , 6 9 w 0 8 w z ",
"7 7 4 7 < , 1 1 4 6 0 7 7 9 , 1 1 1 2 7 6 6 6 6 2 6 6 9 9 5 2 6 1 5 , , , 1 9 6 1 5 7 9 6 1 , 6 6 6 6 6 9 6 6 4 3 , 6 q 0 6 6 9 ",
"8 6 6 7 1 < 1 1 6 6 7 7 9 7 2 1 6 4 9 w 7 7 9 6 6 9 9 6 9 2 2 , 5 2 , , 1 1 6 6 1 5 7 7 6 1 2 2 1 6 1 6 9 6 3 3 3 , 6 9 0 7 6 7 ",
"7 1 1 6 1 , 4 6 9 w D w w 7 6 2 9 , 1 , ; 2 9 1 6 6 7 9 9 6 6 7 9 6 1 1 6 7 w q 6 7 q x 7 9 6 9 6 6 9 w w 9 9 6 3 , 6 6 9 6 6 6 ",
"6 < 1 6 1 ; h j 8 9 w w z 2 7 7 , R _ ' ' ! ^ ~ ^ Q 6 w 2 , 6 9 5 7 1 1 6 q w w 7 7 q w w 9 9 7 3 6 9 0 7 6 6 5 h h 6 4 6 4 4 0 ",
"1 1 6 7 6 > k K l 9 w w 7 1 7 w o ` x.L.O.e G H G ^ 6 7 6 , 1 2 2 6 6 , 6 w w w 7 q w w 7 6 9 7 , 6 6 3 6 , 6 3 k f 6 6 6 1 4 7 ",
", 2 , 6 9 > j J 8 7 w w 7 < 8 7 @ ^ [  . .W ~ ( ^ ~ , 7 6 3 2 6 6 2 , 1 5 7 q w 1 7 w 6 6 6 9 6 , 5 6 , , : 5 3 k k 3 6 6 , 6 6 ",
"2 2 1 6 7 6 : * 6 7 7 7 7 1 7 9 4 6 9 5 , 9 q 6 7 6 9 9 6 ; 1 , 7 1 , 1 6 w w 7 6 9 9 7 9 6 9 6 6 6 6 5 5 ; 6 , * * 1 9 6 , 2 6 ",
"2 , , 9 7 , , 1 2 6 9 6 7 w w 6 1 6 1 1 4 1 , , 1 6 6 9 1 ; , 1 6 , , 1 6 7 9 6 6 6 9 6 7 6 6 4 1 5 , , , , 1 : ; ; : 6 6 1 1 2 ",
"2 1 2 9 9 ; , , 2 6 6 6 6 w 7 7 4 6 , , , 2 , , , , , 5 , = ; 6 6 , , 2 2 6 2 7 , 3 6 , 9 1 6 1 , 6 = = , : , , , - ; 4 2 1 2 1 ",
"1 1 2 6 6 ; 5 1 4 6 6 , 6 2 6 - ; 6 4 , , , , ; , , ; , ; = , 6 2 1 , 6 6 6 6 7 9 6 6 6 6 1 6 , , , , : : = , : = = : , , ; 6 6 ",
"6 2 9 7 9 , 9 1 , 2 6 6 , , 3 - < 1 7 1 , 1 , , 1 1 , 1 , = , 6 6 w 9 6 1 5 6 7 0 3 6 6 6 6 5 1 ; = = = = , 6 = , : : , ; = ; w ",
"9 6 9 7 w 5 , ; ; , 6 9 9 6 6 , ; , 1 2 , 9 6 1 , 1 6 , , ; 1 , , w q q 5 1 5 6 q 6 6 5 6 3 , 5 , , , , , 6 6 = = = : ; , - - 1 ",
"2 6 , 1 5 6 , 3 , , , 2 1 1 , , ; 1 2 , 1 1 , 6 1 6 6 6 , , , ; , 9 w 6 6 1 6 6 9 3 6 6 6 3 5 3 : , , , , , , , : = , = ; : < 2 "
};
