/* XPM */
static char *_d919306b94c424fece1646f6002ad29tWr8uxalkSxM1mA9[] = {
/* columns rows colors chars-per-pixel */
"64 64 104 2 ",
"   c #001003",
".  c #2C0000",
"X  c #001326",
"o  c #1B2121",
"O  c #17222A",
"+  c #18232A",
"@  c #212423",
"#  c #2A2A25",
"$  c #323129",
"%  c #333C39",
"&  c #5E0000",
"*  c #740000",
"=  c #7C1400",
"-  c #7F1B00",
";  c #5F3D36",
":  c #66342C",
">  c #69362C",
",  c #623D36",
"<  c #37403D",
"1  c #534623",
"2  c #5B4D25",
"3  c #5D423C",
"4  c #5F5A38",
"5  c #6F5C27",
"6  c #725E26",
"7  c #67443E",
"8  c #68443E",
"9  c #7A6422",
"0  c #796636",
"q  c #7B6835",
"w  c #7A6839",
"e  c #3A4340",
"r  c #404745",
"t  c #414946",
"y  c #464D4A",
"u  c #494F4D",
"i  c #534C49",
"p  c #4A514E",
"a  c #50514F",
"s  c #5D524F",
"d  c #465452",
"f  c #4E5452",
"g  c #4C5856",
"h  c #4D5658",
"j  c #4E5B59",
"k  c #515654",
"l  c #525856",
"z  c #555A59",
"x  c #5B5B5B",
"c  c #6A4741",
"v  c #6B4942",
"b  c #714942",
"n  c #695E5B",
"m  c #5B615F",
"M  c #615F60",
"N  c #5E6262",
"B  c #626464",
"V  c #6F6361",
"C  c #656867",
"Z  c #6E6D63",
"A  c #666969",
"S  c #6A6D6C",
"D  c #726462",
"F  c #756966",
"G  c #6D706F",
"H  c #72726E",
"J  c #676D71",
"K  c #6E7171",
"L  c #727574",
"P  c #787772",
"I  c #757877",
"U  c #7A7877",
"Y  c #777978",
"T  c #7A7C7B",
"R  c #810000",
"E  c #811900",
"W  c #997D00",
"Q  c #876F27",
"!  c #876E28",
"~  c #8A7229",
"^  c #847D6D",
"/  c #7F807F",
"(  c #A18100",
")  c #90825C",
"_  c #858071",
"`  c #7F8281",
"'  c #848584",
"]  c #878887",
"[  c #878888",
"{  c #8C8D8D",
"}  c #8E9191",
"|  c #939393",
" . c #989797",
".. c #959897",
"X. c #959798",
"o. c #989798",
"O. c #969999",
"+. c #9A9B9B",
"@. c #B7B8B8",
"#. c #CCCDCD",
"$. c #D0D1D0",
"%. c #DFDFDF",
"&. c #E2E2E2",
"*. c #E7E8E8",
/* pixels */
"f k f f f f f f f f l f f l f f f f f k x f f k f f f f f f k k p k f f l f l f k k f f f k k f k k f f f k f f f f l x f k k k ",
"f k f f f f f f f f f f f f f k k f f k x k k k f f k k k f f k f f f f l f l f f k k k k k k f z l f f k z f k f f l x f f k f ",
"k f f f l f f f f k f f f f l f k z k k x k k k z k k k k f k l k f z l l p f p f d f f k k l z k f l k k k l f l f f x l f f k ",
"f k f f l f l f f f f f f f f l k k k k k z z f z k k k z k l z f l x m z N C N x j N m f f k z k k k z f f f l f f l x k f k k ",
"k f f f l l l f f k f l f f k k f k k k z N l f z k l f k x z l l x z p L P H K K ^ _ T p f p f f k x k f f k f f f k x f k k f ",
"k f f l z k k f k f f l l f l f f f f l x z f f x k k f f f z l k k k d L $ & . 4 ( W P f f f m k f k k k k k f f f k s p k f f ",
"f f f z l k l f l l f l f f f f f f f z x f z f f p l k k k k f k f f y I S n M Z ) ) / p f k z k k p k l f f f l f k z f f k k ",
"f f f f l f k f f f f l l f f f f f f k x f f k l f z k k l k f f f f f x S K K A A J B f g f f k z f f z x f l f f k z k f f k ",
"f l l l f l l f f f f l l k f f f k f k x f k k k k k f k k k k f f f f p u p p f p p z k f k z z z f p k p p z f u k x k k f f ",
"f l l l l f f l f l k l k f f l f f f k x f k l k k f k k k k k l l k f f k l l f z z z z f k k p k p k z p p p k d z x f k p k ",
"l f f f f f f l f k k l f l p l k k f k x k f f z k k k f k l l l l l l k k k p f f p k z k k k p k f k k p k l k k z x k k k k ",
"f f f l z l f k l p p k f l l l z k f y y f f f l k k k k k k k f p f l l l f p l k p k f p k f p f p k k p p k k p u y u z k f ",
"f f k l f k k k l z l f f l f l l f d ` | B y k f f k f p p k k p p p p k l k p k p f z k p f p f k p x k p l k l p L | L u z k ",
"f f l f k f f l l k f f f l f f f z % @.&.S r f f k k f k u k k p l k p p k l p k p z k f p f k l k f z k f l k l < ..*.| % x f ",
"f f p f p f k k k l k f f l l p f f e +.#.x f f k u y y p p f u f l l k l l f p z k z k f p f p p u t u y t f p l y I #.I y z f ",
"f f f f f f f k p p f f f f k f z f z e   f k f l L Y I Y T Y P x l g l k z f f l p p k k k k p A T I Y I / L p g N L l K G f f ",
"f f f f z l f p f k p f f f f k z f p l s g k f k ' o.| | | | | z f k k f u f p k k k k l k f t T ..+. .|  .{ p p C  .] ' x f l ",
"f k f k f l f f k l f k k p f f z p g 3 : z k p u ' | } { } { { z d f g d h d d h g z j h g h d T ..} } { { ] p u A  .S S K l l ",
"f f f p l f f l k l f f f p l z k k g 3 > g l f u ' | } | | | { s , c c 8 v c 7 7 8 v c 7 c c ; U  .{ { { } ' p u C +.G [ G l l ",
"k f l k k p f k k l f p f f k l k l f a , l l f y ' } } | | | { b R = = E = = = = - E - = = - * U  .| } } | ] f u C | U T B g l ",
"f f l f f f f l f l f f f p p k l l f i 7 g f k u ] | | | } | [ B D F D D D V V n V V D V V V n P [ ' ] ' ' / f f S | N ] L u k ",
"l l f f l f f l f l f l f k l l f f f a i p z l y ' | | | } | ] T  .X.| | | } | { } | X.| } | { S k l l g u B z p A } L T l k k ",
"z l f l l f p l k f f k p l k f l f f f f f l l y '  . .| |  .{ T  .| | | | | } { | X.| | X.O.{ A k f k k l A x p A  .T P L u k ",
"f f f f l f p f f f f f f l f f z l k p f l l k p U ] ' ' ' ] ' L ' ] ' ' ] ' ' ' [ ] ' [ [ [ _ S S B B C C A z f x L T T C l k ",
"f f f f k f k k k k k f k k l k f z k f k l l k f p p p y p p f f u p u u p y u p p p p f y p u k l k z f f p l l f y p y f x l ",
"f f f k l p f f f f f k k k l k g k k l z f l l f k l z f f f k k k k f k k u f k f f l g f k p f f p k z f f p f l l l f l l g ",
"l f f k k l f g k f f f f l k k k k k f f k k k f f l f k f f f f z k f k l p f f f l f k p p f f p f l z f f f f f f k f f k k ",
"f k f f p k k f k f k p f k f f k p k p f f k k p f k l f f f f f k z k k l k p f z l f p k z k f f l l f f p f l f f p p k l k ",
"l f f f p f f l k k f f f k f f k k k p k k k p f f l l f f k f f f k k f k k u f z f l f l l f k k f f f f f l l f f f k k k p ",
"f f f f f f f f f f k f p k f k k k l f k k k f f p f f f l l f p f f f k k k u f l l f k l p f f l f k p f f f f f f f f k f k ",
"f f l p f f f l f l f f l k k k p l k p p k k k f f f f k l f f f f f l k k f p p z z f k l f f f f l f f k l f f k f f l l k l ",
"k l l f l f p f z k f k k f k l p z k p f k k f f f f f f k k l f k k k k f k p f z l f f f k f p f l f f f f k l k f l k f f f ",
"k f k p f f k f f f f k f k f k a z x x f l k k l k p k f k k k f k l f k k f p k k k k f k k p f k k k f l l k k l f f l x x l ",
"f f k f k k k k f f f f f f k k z z x x h f k l k k p k k k k k f k z l k k f p f k k k l f k f k l k f f l f f f l f l x x x x ",
"f f k f p f k f f k f f f k l k s z x x f p l k k f f f f k k k f p l l k k l f k f k f f f l f p k k f f k k k f f k k z x x x ",
"k k f p k l f f f f f f k f k f l M M x p k f k k k p f k f f f f f f f f f k p f k k f f f k f p k k k k k f f f f k l x x x x ",
"f f k k k l f f f k f f f f k k M M x x a f f k p k k f k p k f k k f f k p k f p k k k f k f f f k f k k k k f k k h a s x z x ",
"f l f f f k f f f f f f a p f k x x x x k f f k p k k f k f k f f f f f f k z k z k k f f k k k k p f f f f f f a k a a x M x x ",
"f f f f f f f f f f f k f f k k x M M x k p p k f f k f h k k k f k k f k z z n x x l f f k f k l k k k f f k k h k h l x M x x ",
"k f f k f k k f f f k k k p k k l l l a p l k f k f k f k k a y u f f k x x x x x x x x f f f f k f f f f k k f k f a l l x l a ",
"f f f f f f f f k k k f k f f p a a f h k k k k f l x x x x z S B d k k M x z x x x s M a k k k k k k k f k k f f f k f p f k p ",
"f f f l l f f k p f f f k f k p a h f k k p p k f x z M M a L %.+.t k x x x x x x x x M k f k k k k f k f f l k k f k h k f k k ",
"f f f f l k f f k f k k f f k f f f a k f f k k k s k M M u T &.| u k x x z x x z x x x z k k f k f f f f k k k k f f k k p k k ",
"f f f f f f f k k k p p f f f f h a k k p k k k k B B x x a S $. .t k x n z x x x x x M k f k k k f f f f f k k a f l f k k f f ",
"f k f f f f f f f p k k f f f f a k k k k p k k k x l k x x p t f f k k n z x M x x x x h a k k k f f k k k k k k f f f k k f f ",
"f f k k f l f l k f l k p f f f f f f k k k p k k l k k z k k k k k f k x x x x x x x x k k k k k f k f f f f k f k k f k k k f ",
"f f k f f l f f k k f f a k f f f k k f p k z k k k f k z k f k f k f k l l x x x x h k f f a k f f f k k k f k f k f k f k k k ",
"f f k k f k f k h f f f f f f f f k k a z k k k k f f f k k f k k k f f k f k l a a a k k k f h f f f f f k f k k l f k k k k f ",
"f f k k f f k f k f k f f f f f f f k k f k k f k f f f f k f f f k k k k k k k f l l k k k k k k k k k f f k f k f f k k f f f ",
"f f l k f k f k k f f f f f f f f f f f f f f k l k f f k f k k f k k d f u p p u u p p u f k k f f k k k k k f f k f k f z f f ",
"f f k f f k f k f f k f f k k f f f f f k f f k k k f f k k f k p k x S A A Z S C A A A A x k k f f f f l f f l f f f f f k f k ",
"f k f f f f f f f p k f f k f f f f f k k f f k k f p f k k k k k y L } { { { } { { { { | C d z k f f k f f f f f k l f f f f f ",
"f f f f f f k f f f f f f f k f f f f f k k f k k k f k k k k f f p M S S S G S S S S S S x f l k f f f z f f f f f z f k f f z ",
"f f f k f f f f f f k f k f f f f f f f k k k k k k k f k k f k k u I | { { } } { } } } | A p k f f f k k f f z f f f f f f f f ",
"k f f f f f f k f f k f f f k f f f f f f k k k f p f k f f f k f k k z x z z z z z z z z k f k k f l k f f k f f f l f f l f f ",
"f f f f f f p k f f k k f f f f f k f f f f f k k x k f k f f f f k k f k p f k p k a k f f k k f f f f f f k k k f f f f f f l ",
"f f f f f f f f f f f k k f f f f f z k f f f k x n z f k l f l k k k k k f k f f k k k k f f f k f k f k k f k f f f f f f k k ",
"k f k f k k f f f k f f f f f k k f f f f f f k z x k f l f f f k k k k k f k f f f k k k k k f f k f f k k f k g z k f k k l l ",
"f f k f f f f f f f f f p f k f k k k f f f f f f k f f f f f f k k k k k f f f f f k k k k k f f k k k k k f f k k f f k k f f ",
"f f k k f f f f f f f f f f k f k k f f f k f f f f f f f l f l f f k k k f f f f f k k f k f f f f f k f f f f k f f f f f f f ",
"f f l k f k f f f k f k k k f f k k k f f k f k f f f f k f f k f l f l z f f k f f f k f f f f f k k f f f k k f f f f f f f l ",
"f f l k k k k f f k f k l f f k l f f k f k k k f f k l j f l l h h f z k f f f k f f k k h f f k k f d f k k f f f f f f f f f ",
"k f k l l l f f k f f k k k f f k f f k f f k k k l l h w 1 X 2 Q 5 o $ k f f f f k f k $ o 6 ! 2 X 1 0 f k k f k f k f k k f f ",
"k f f f f k f f k f f f f k f f f f f f k f f k k k k d q 9 # @ 5 Q 2 O k f z f k k k k + 1 ~ 6 @ # 9 0 d k f f k f k f f f l k "
};
