/* XPM */
static char *_211cd71e96f4b09c1ecdffcd4572c1er1xAtLZZU1516bVu[] = {
/* columns rows colors chars-per-pixel */
"64 64 78 1 ",
"  c None",
". c #012E67",
"X c #082E67",
"o c #012E68",
"O c #0A2C69",
"+ c #1C2C67",
"@ c #112D68",
"# c #1E2D68",
"$ c #013066",
"% c #242C67",
"& c #2D2B66",
"* c #242B69",
"= c #282B69",
"- c #362666",
"; c #392764",
": c #332B66",
"> c #3B2965",
", c #392A68",
"< c #6D1F65",
"1 c #741D64",
"2 c #7C1E63",
"3 c #432665",
"4 c #4C2566",
"5 c #422965",
"6 c #4C2867",
"7 c #4B2669",
"8 c #532465",
"9 c #5A2564",
"0 c #522866",
"q c #5C2965",
"w c #50276A",
"e c #502868",
"r c #632564",
"t c #6C2464",
"y c #742265",
"u c #7C2364",
"i c #9A155F",
"p c #9B195F",
"a c #A70F5F",
"s c #AB0D5F",
"d c #B40D5E",
"f c #BC0D5D",
"g c #A3135F",
"h c #AD135F",
"j c #A5185E",
"k c #AA1B5F",
"l c #B4135F",
"z c #BC145E",
"x c #871661",
"c c #8F1561",
"v c #841C63",
"b c #8C1B61",
"n c #951561",
"m c #9E1561",
"M c #931A62",
"N c #9C1A62",
"B c #B40D60",
"V c #BB0F61",
"C c #A11460",
"Z c #AD1561",
"A c #A31C61",
"S c #AC1961",
"D c #B21461",
"F c #BB1560",
"G c #842264",
"H c #8C2164",
"J c #CC075C",
"K c #C50B5E",
"L c #CB0C5D",
"P c #D4035A",
"I c #DE005A",
"U c #D4095D",
"Y c #C3125E",
"T c #C9105C",
"R c #E0015B",
"E c #C50D60",
"W c #CB0C60",
"Q c #C01260",
/* pixels */
"                                                                ",
"                                                                ",
"                                                                ",
"                                                                ",
"                              ITU                               ",
"                           IIIRIRII                             ",
"                          IIIIIIRIII                            ",
"                        IIIIIIIIIIIIII                          ",
"                       IIIIIIM5X:IIIIII                         ",
"                      IRIIIIIt$oo:IIIIII                        ",
"                      IIIIImyoXooo=IIIIR                        ",
"                     IIIIIE0Xo.$.oo#IIIII                       ",
"                    IIIIIl9oo%AYzyoo>IIIII                      ",
"                   IIIIIfroo@DIIRIuo$#IIII                      ",
"                  IIIIIm2999rKIIIPS606IIIIII                    ",
"                IIIIIIIiNNNNphIIIKaMpppIIRIII                   ",
"                IIIIIV9Xoooo&LIIIIjo$oooIIIIII                  ",
"               IIIIIh0oooooootUIIz,oooooo%IIIII                 ",
"              IIIIIbroooooo$oo%yq$oooo$ooo=IIIIII               ",
"             IIIIIIlSSSkSSSSSkStuSSSDSDSSShIIIIIII              ",
"            IIIIIIRIIIIIIIIIIIS*&QIIIIIIRIIIIIIIII              ",
"           IIIIIIIIIIIIIIIIIISOo$&FRIIIIRIRIIIIIIII             ",
"           IIIIPPPPJPPPPPPPPS55HH>6zPPPPJPPPPPPIIIIR            ",
"       IIIIIIIBBddBBdBddBBdslDCUPmBZZdsdddddddfIIIIIIIII        ",
"       IIIIIIIIPIPPPPPIPIPNooooytooo%DIPPIPPPPIPIIIIIIII        ",
"       IIIIIIIIIIIIIIIIIIk+oooooooooo:FRIIRRRRIIIIIIRIII        ",
"       IIIIIIIIIIIIIIRIIS+oooo$ooooooo:QRIIIRRIIIIIIIIII        ",
"       IIIIIIIIIIIIRIIIIyutytvyGGu2Gy91yIIIIRIIIIIIIIIII        ",
"       IIIIIIIIIIIIIIIII      MI        IIIIIIIIRIIIIIII        ",
"                             cPII                               ",
"                            MRIIIIP                             ",
"            IRI            IIIIIIIIr            III             ",
"           IIIIR          MIIIIIIIILW          IIIII            ",
"          IIIIIII        CPIIIIIIIIIIL        IIIIIIII          ",
"          IIIIIIIA      CIIIIIIIIIIIIRP      fIIIIRIII          ",
"IIRIIIIIIIIIIIIIIMP    nFIIIIIIIIIIIIIJ    zIEIIIIIIIIIIIIIIIIII",
"IIIIIIIIIII     X9PI    bnn9>%9Lh*&38cn   dIIY%OXO#>IIIIIIIIIIII",
"IIIIIIIIRIR      6zPI         LIIA4     xCLPfM      IIIIIIIIIIII",
"IIIIIIIIIII       ;4Cf       LIIIIA-   tffab>       IIIIIIIIIIII",
"IIIIIIIIIII        9AEv3    TIIIIIIA; B<3bKv        IIIIIIRIIIII",
"IIIII  IIII         r87cd  LIILIIPRIA2fl1>4         IIIIIIIIIIII",
"IRIII  IIII          <gdKvLRIkOII5QIIS1sgv          IIIIII  IIII",
"IIIII  IIII           >MbLIIU%oIIorIIUA<t           IIIRII  IIII",
"IIIIR  IIII            ChdsdCRIIIIIZdddim           IIIIIR  IIII",
"IIIII  IIII           <KJJJPf>$IIX0LJJJJm4          IIIIII  IIII",
"IIIII  IIII          tLIIIRRUtoIRONRIIIIIj3         IIIIII  RIII",
"RIIII  IIII         wTIIIIIIIUHIISUIIIIIIIN         IIIIII  IIII",
"IIIII  IIII         LIIIIIIRIIRUIRRRIIIIIIU         IIIIIR  IIII",
"           IIIIIIIIIIIIIIIIIIITrFIIRIIIIIIIIRIIIIIIII           ",
"           IIIIIIRIIIIRIIIIIRLy$eFIIIIIIIIIIIIIIIIIII           ",
"           IIRIIIIIIIIIIIIIILt  &0SIIIIIIIIIIIIIIIRII           ",
"           IIIIIIIIIIIIIIIRLq     5DIIIIRIIIIIIIIIIII           ",
"           IIIIIIIIIIIIIRIIq       6ZIIIIIIIIIIIIIIII           ",
"           IIIIIIIRIRIIIIUG         +SIIIIIIIIIIIIIII           ",
"           IIIIIIIIIIRIIUr           %SIIIIIIIIIRRIII           ",
"           IIIIRIRIIIIRUu             OzIRIIIIRRIIIII           ",
"           IIIIIIIIIIII                6IIIRIIIIIIIII           ",
"           IIIIIIIIIIIR                 &IIIIIIIIIIII           ",
"           IIIIIRIIII                     IIIIIIIIIRI           ",
"           IIIIIIIIR6                      IIIIIIIIII           ",
"           IRIRRIIUG                        FIRRRRIII           ",
"           IIIIIJF                           YzYIIIII           ",
"           IIIIH3                             .3URIII           ",
"           IIIIII                              IIIIII           "
};
