/* XPM */
static char *_5225_9ab211733bd455f43237baac733579d9988ff9e9db517920fb58d44aa04f80d3[] = {
/* columns rows colors chars-per-pixel */
"64 64 193 2 ",
"   c #030201",
".  c #0B0502",
"X  c #0C0903",
"o  c #0C090C",
"O  c #150E06",
"+  c #190E06",
"@  c #120E0B",
"#  c #161007",
"$  c #15100B",
"%  c #1B140B",
"&  c #1D190E",
"*  c #191107",
"=  c #0C0C13",
"-  c #05051B",
";  c #0B0B1D",
":  c #141312",
">  c #1C1914",
",  c #12121C",
"<  c #1C191B",
"1  c #181713",
"2  c #23150A",
"3  c #2A170C",
"4  c #241A0C",
"5  c #2D1B0C",
"6  c #241307",
"7  c #311D0D",
"8  c #231C13",
"9  c #2D1E11",
"0  c #221F1C",
"q  c #321F11",
"w  c #1F2017",
"e  c #2E200F",
"r  c #242212",
"t  c #2F2311",
"y  c #23201E",
"u  c #2C291B",
"i  c #352213",
"p  c #3A2514",
"a  c #322A13",
"s  c #3C2B16",
"d  c #342519",
"f  c #3A2719",
"g  c #3D2B1A",
"h  c #3A341E",
"j  c #020220",
"k  c #1A1A20",
"l  c #201E20",
"z  c #1F2323",
"x  c #252321",
"c  c #2A2824",
"v  c #2F2F2E",
"b  c #262824",
"n  c #372C25",
"m  c #2E3321",
"M  c #363927",
"N  c #26223C",
"B  c #353434",
"V  c #383635",
"C  c #3D3A35",
"Z  c #3F3E3E",
"A  c #422D1B",
"S  c #402614",
"D  c #423017",
"F  c #45321A",
"G  c #4A361B",
"H  c #4D391C",
"J  c #523C1E",
"K  c #4C3620",
"L  c #4B3C23",
"P  c #4A3B2C",
"I  c #443B26",
"U  c #543E22",
"Y  c #593E21",
"T  c #533E2B",
"R  c #453B36",
"E  c #3B432A",
"W  c #4A4125",
"Q  c #4E472C",
"!  c #4C4A2D",
"~  c #434027",
"^  c #534122",
"/  c #5D4323",
"(  c #5A442A",
")  c #464B30",
"_  c #554C3A",
"`  c #5F5830",
"'  c #634525",
"]  c #6A4727",
"[  c #66492A",
"{  c #6D4B2A",
"}  c #6A4728",
"|  c #734D2A",
" . c #7C532F",
".. c #77512D",
"X. c #634F32",
"o. c #6B4F31",
"O. c #695335",
"+. c #675439",
"@. c #2F2858",
"#. c #2C335E",
"$. c #343465",
"%. c #373977",
"&. c #2B2869",
"*. c #49394C",
"=. c #424242",
"-. c #4C4C4C",
";. c #4D4747",
":. c #585A45",
">. c #5B5B5B",
",. c #565554",
"<. c #6F5843",
"1. c #765C48",
"2. c #576045",
"3. c #79614F",
"4. c #6A625D",
"5. c #666657",
"6. c #7C6451",
"7. c #6E7357",
"8. c #717155",
"9. c #584777",
"0. c #646464",
"q. c gray42",
"w. c #6A6767",
"e. c #737568",
"r. c #7D726C",
"t. c #7C7C7C",
"y. c #747476",
"u. c #855936",
"i. c #89715A",
"p. c #836B57",
"a. c #3B3E94",
"s. c #282C99",
"d. c #3337BC",
"f. c #4D4D96",
"g. c #797B85",
"h. c #4D4BBB",
"j. c #6464BF",
"k. c #6462A8",
"l. c #2A2AC6",
"z. c #3C3CC6",
"x. c #2C2CF1",
"c. c #3131F4",
"v. c #4141C5",
"b. c #5555C5",
"n. c #5B59C6",
"m. c #6565C6",
"M. c #7E7EC7",
"N. c #7C6DD7",
"B. c #4242F1",
"V. c #5050F3",
"C. c #7171F2",
"Z. c #8C7F83",
"A. c #807ADA",
"S. c #878882",
"D. c #8A8A8A",
"F. c #838586",
"G. c #9A9E8C",
"H. c gray57",
"J. c #A49C85",
"K. c #B5A997",
"L. c #C6B5A6",
"P. c #CECFA9",
"I. c #CDCFAF",
"U. c #8484C5",
"Y. c #898BC7",
"T. c #9394C6",
"R. c #A8A9C9",
"E. c #9797EF",
"W. c #8686F2",
"Q. c #8C8CFF",
"!. c #8181FE",
"~. c #9393FF",
"^. c #9A9AFF",
"/. c #A2A2F2",
"(. c #B7B7FF",
"). c #BABAFF",
"_. c #FFFFD6",
"`. c #FEFEDA",
"'. c #C3C3FF",
"]. c #CBCBFF",
"[. c #D1D1FF",
"{. c #DCDCFF",
"}. c #FCFCE2",
"|. c #F7F7E8",
" X c #FFFFEE",
".X c #F7F7E3",
"XX c #EEEEF7",
"oX c #E6E6FE",
"OX c #EBEBFA",
"+X c #F1F1F1",
"@X c #FFFFFC",
"#X c #FFFFF2",
"$X c None",
/* pixels */
"$X$X$X$X$X$X$X$X$X$X$X$X$X$X$X$X$X$X$X$X$X$X$X$X$X$X$X$X0 o 1 x B v :   8 B $X$X$X$X$X$X$X$X$X$X$X$X$X$X$X$X$X$X$X$X$X$X$X$X$X$X",
"$X$X$X$X$X$X$X$X$X$X$X$X$X$X$X$X$X$X$X$X$X$X$X$X$X$X4 1 : O @ @ 1 = $     X X $X$X$X$X$X$X$X$X$X$X$X$X$X$X$X$X$X$X$X$X$X$X$X$X$X",
"$X$X$X$X$X$X$X$X$X$X$X$X$X$X$X$X$X$X$X$X$X$X$X$X$ @   < & O $ % % : : o #     .   $X$X$X$X$X$X$X$X$X$X$X$X$X$X$X$X$X$X$X$X$X$X$X",
"$X$X$X$X$X$X$X$X$X$X$X$X$X$X$X$X$X$X$X$X$X$X$XE @ O O M r u F L P K u 8 w u #   . % $X$X$X$X$X$X$X$X$X$X$X$X$X$X$X$X$X$X$X$X$X$X",
"$X$X$X$X$X$X$X$X$X$X$X$X$X$X$X$X$X$X$X$X$X$X$Xl %.$.= %.g.D.J.K.L.K.G.S.y.#., $.&.$X$X$X$X$X$X$X$X$X$X$X$X$X$X$X$X$X$X$X$X$X$X$X",
"$X$X$X$X$X$X$X$X$X$X$X$X$X$X$X$X$X$X$X$X$X$X$X$X~.M.k x.'.[..X@X@X X+X].(.l.j E.!.$X$X$X$X$X$X$X$X$X$X$X$X$X$X$X$X$X$X$X$X$X$X$X",
"$X$X$X$X$X$X$X$X$X$X$X$X$X$X$X$X$X$X$X$X$X$X$X$X^.U., B.].{.}.@X@X X+X{.(.z.j /.Q.$X$X$X$X$X$X$X$X$X$X$X$X$X$X$X$X$X$X$X$X$X$X$X",
"$X$X$X$X$X$X$X$X$X$X$X$X$X$X$X$X$X$X$X$X$X$X$X$X^.U., C.{.+X_.@X@X#X_.oX{.b.- /.Q.$X$X$X$X$X$X$X$X$X$X$X$X$X$X$X$X$X$X$X$X$X$X$X",
"$X$X$X$X$X$X$X$X$X$X$X$X$X$X$X$X$X$X$X$X$X$X$X$X^.U., W.OX`.`.@X@X#X}._.{.m.; /.~.$X$X$X$X$X$X$X$X$X$X$X$X$X$X$X$X$X$X$X$X$X$X$X",
"$X$X$X$X$X$X$X$X$X$X$X$X$X$X$X$X$X$X$X$X$X$X$X$X^.U., W.XX}. X@X@X@X X`.{.m.; /.Q.$X$X$X$X$X$X$X$X$X$X$X$X$X$X$X$X$X$X$X$X$X$X$X",
"$X$X$X$X$X$X$X$X$X$X$X$X$X$X$X$X$X$X$X$X$X$X$X$X^.U., C.oX|._.@X@X X_.+X{.n.- /.Q.$X$X$X$X$X$X$X$X$X$X$X$X$X$X$X$X$X$X$X$X$X$X$X",
"$X$X$X$X$X$X$X$X$X$X$X$X$X$X$X$X$X$X$X$X$X$X$X$X^.U., V.[.oX`.@X@X X+XoX).v.- /.Q.$X$X$X$X$X$X$X$X$X$X$X$X$X$X$X$X$X$X$X$X$X$X$X",
"$X$X$X$X$X$X$X$X$X$X$X$X$X$X$X$X$X$X$X$X$X$X$X$X^.U.1 c.'.]..X@X@X#XXX'.).l.- /.Q.$X$X$X$X$X$X$X$X$X$X$X$X$X$X$X$X$X$X$X$X$X$X$X",
"$X$X$X$X$X$X$X$X$X$X$X$X$X$X$X$X$X$X$X$X$X$X$X$Xb.f.: d.T.Y.R.P.P.I.R.Y.T.s.= j.h.$X$X$X$X$X$X$X$X$X$X$X$X$X$X$X$X$X$X$X$X$X$X$X",
"$X$X$X$X$X$X$X$X$X$X$X$X$X$X$X$X$X$X$X$X$X$X$XE X # @ M r r h I Q I M u c m $ o o * $X$X$X$X$X$X$X$X$X$X$X$X$X$X$X$X$X$X$X$X$X$X",
"$X$X$X$X$X$X$X$X$X$X$X$X$X$X$X$X$X$X$X$X$X$X$X$XO     b % $ & & 8 & , * * #       $X$X$X$X$X$X$X$X$X$X$X$X$X$X$X$X$X$X$X$X$X$X$X",
"$X$X$X$X$X$X$X$X$X$X$X$X$X$X$X$X$X$X$X$X$X$X$X$X$Xc # : $ O : : : : :   .     & $X$X$X$X$X$X$X$X$X$X$X$X$X$X$X$X$X$X$X$X$X$X$X$X",
"$X$X$X$X$X$X$X$X$X$X$X$X$X$X$X$X$X$X$X$X$X$X$X$X$X$X$X1 < @ @ < z b o   : y $X$X$X$X$X$X$X$X$X$X$X$X$X$X$X$X$X$X$X$X$X$X$X$X$X$X",
"$X$X$X$X$X$X$X$X$X$X$X$X$X$X$X$X$X$X$X$X$X$X$X$X$X$X$X$Xd i G U T n q 9 f $X$X$X$X$X$X$X$X$X$X$X$X$X$X$X$X$X$X$X$X$X$X$X$X$X$X$X",
"$X$X$X$X$X$X$X$X$X$X$X$X$X$X$X$X$X$X$X$X$X$X$X$X$X$X$X$X5 % i g g % * % e $X$X$X$X$X$X$X$X$X$X$X$X$X$X$X$X$X$X$X$X$X$X$X$X$X$X$X",
"$X$X$X$X$X$X$X$X$X$X$X$X$X$X$X$X$X$X$X$X$X$X$X$X$X$X$X$X5 % 9 D f * * # 5 $X$X$X$X$X$X$X$X$X$X$X$X$X$X$X$X$X$X$X$X$X$X$X$X$X$X$X",
"$X$X$X$X$X$X$X$X$X$X$X$X$X$X$X$X$X$X$X$X$X$X$X$X$X$X$X$X5 O i H p 4 4 * 5 $X$X$X$X$X$X$X$X$X$X$X$X$X$X$X$X$X$X$X$X$X$X$X$X$X$X$X",
"$X$X$X$X$X$X$X$X$X$X$X$X$X$X$X$X$X$X$X$X$X$X$X$X$X$X$X$Xs E :.8.2.) ^ s t $X$X$X$X$X$X$X$X$X$X$X$X$X$X$X$X$X$X$X$X$X$X$X$X$X$X$X",
"$X$X$X$X$X$X$X$X$X$X$X$X$X$X$X$X$X$X$X$X$X$X$X$X$X$X$X$XD W 2.7.2.Q ^ s a $X$X$X$X$X$X$X$X$X$X$X$X$X$X$X$X$X$X$X$X$X$X$X$X$X$X$X",
"$X$X$X$X$X$X$X$X$X$X$X$X$X$X$X$X$X$X$X$X$X$X$X$X$X$X$X$XD G W :.Q J H s a $X$X$X$X$X$X$X$X$X$X$X$X$X$X$X$X$X$X$X$X$X$X$X$X$X$X$X",
"$X$X$X$X$X$X$X$X$X$X$X$X$X$X$X$X$X$X$X$X$X$X$X$X$X$X$X$XD G / X./ J H s a $X$X$X$X$X$X$X$X$X$X$X$X$X$X$X$X$X$X$X$X$X$X$X$X$X$X$X",
"$X$X$X$X$X$X$X$X$X$X$X$X$X$X$X$X$X$X$X$X$X$X$X$X$X$X$X$Xs G ` N.A.k.! a a $X$X$X$X$X$X$X$X$X$X$X$X$X$X$X$X$X$X$X$X$X$X$X$X$X$X$X",
"$X$X$X$X$X$X$X$X$X$X$X$X$X$X$X$X$X$X$X$X$X$X$X$X$X$X$X$X$X% g *.*.N & # $X$X$X$X$X$X$X$X$X$X$X$X$X$X$X$X$X$X$X$X$X$X$X$X$X$X$X$X",
"$X$X$X$X$X$X$X$X$X$X$X$X$X$X$X$X$X$X$X$X$X$X$X$X$X$X$X$X$X% p Y d O * O $X$X$X$X$X$X$X$X$X$X$X$X$X$X$X$X$X$X$X$X$X$X$X$X$X$X$X$X",
"$X$X$X$X$X$X$X$X$X$X$X$X$X$X$X$X$X$X$X$X$X$X$X$X$X$X$X$X$X7 D / i * O * $X$X$X$X$X$X$X$X$X$X$X$X$X$X$X$X$X$X$X$X$X$X$X$X$X$X$X$X",
"$X$X$X$X$X$X$X$X$X$X$X$X$X$X$X$X$X$X$X$X$X$X$X$X$X$X$X$X$Xi J ' f * * O $X$X$X$X$X$X$X$X$X$X$X$X$X$X$X$X$X$X$X$X$X$X$X$X$X$X$X$X",
"$X$X$X$X$X$X$X$X$X$X$X$X$X$X$X$X$X$X$X$X$X$X$X$X$X$X$X$X$Xi Y | H * # + $X$X$X$X$X$X$X$X$X$X$X$X$X$X$X$X$X$X$X$X$X$X$X$X$X$X$X$X",
"$X$X$X$X$X$X$X$X$X$X$X$X$X$X$X$X$X$X$X$X$X$X$X$X$X$X$X$X$Xs ( u.9.@.r * $X$X$X$X$X$X$X$X$X$X$X$X$X$X$X$X$X$X$X$X$X$X$X$X$X$X$X$X",
"$X$X$X$X$X$X$X$X$X$X$X$X$X$X$X$X$X$X$X$X$X$X$X$X$X$X$X$X5 a _ 4.b.a.M 8 7 $X$X$X$X$X$X$X$X$X$X$X$X$X$X$X$X$X$X$X$X$X$X$X$X$X$X$X",
"$X$X$X$X$X$X$X$X$X$X$X$X$X$X$X$X$X$X$X$X$X$X$X$X$X$X$X$XV *.,.y.w.-.Z V v $X$X$X$X$X$X$X$X$X$X$X$X$X$X$X$X$X$X$X$X$X$X$X$X$X$X$X",
"$X$X$X$X$X$X$X$X$X$X$X$X$X$X$X$X$X$X$X$X$X$X$X$X$X$X$X$X-.0.t.H.S.r.0.-.R $X$X$X$X$X$X$X$X$X$X$X$X$X$X$X$X$X$X$X$X$X$X$X$X$X$X$X",
"$X$X$X$X$X$X$X$X$X$X$X$X$X$X$X$X$X$X$X$X$X$X$X$X$X$X$X$X-.q.t.D.S.e.0.-.=.$X$X$X$X$X$X$X$X$X$X$X$X$X$X$X$X$X$X$X$X$X$X$X$X$X$X$X",
"$X$X$X$X$X$X$X$X$X$X$X$X$X$X$X$X$X$X$X$X$X$X$X$X$X$X$X$Xn :.4.r.0.;.C C v $X$X$X$X$X$X$X$X$X$X$X$X$X$X$X$X$X$X$X$X$X$X$X$X$X$X$X",
"$X$X$X$X$X$X$X$X$X$X$X$X$X$X$X$X$X$X$X$X$X$X$X$X$X$X$X$X7 7 G ] G s 5 a 3 $X$X$X$X$X$X$X$X$X$X$X$X$X$X$X$X$X$X$X$X$X$X$X$X$X$X$X",
"$X$X$X$X$X$X$X$X$X$X$X$X$X$X$X$X$X$X$X$X$X$X$X$X$X$X$X$Xi p A.A.A.A.A.J i $X$X$X$X$X$X$X$X$X$X$X$X$X$X$X$X$X$X$X$X$X$X$X$X$X$X$X",
"$X$X$X$X$X$X$X$X$X$X$X$X$X$X$X$X$X$X$X$X$X$X$X$X$X$X$X$Xd 0 C ;.R N b y d $X$X$X$X$X$X$X$X$X$X$X$X$X$X$X$X$X$X$X$X$X$X$X$X$X$X$X",
"$X$X$X$X$X$X$X$X$X$X$X$X$X$X$X$X$X$X$X$X$X$X$X$X$X$X$X$X*.,.q.D.i.q.>.=.B $X$X$X$X$X$X$X$X$X$X$X$X$X$X$X$X$X$X$X$X$X$X$X$X$X$X$X",
"$X$X$X$X$X$X$X$X$X$X$X$X$X$X$X$X$X$X$X$X$X$X$X$X$X$X$X$XE 0.y.D.F.q.>.=.B $X$X$X$X$X$X$X$X$X$X$X$X$X$X$X$X$X$X$X$X$X$X$X$X$X$X$X",
"$X$X$X$X$X$X$X$X$X$X$X$X$X$X$X$X$X$X$X$X$X$X$X$X$X$X$X$X=.0.y.D.t.0.,.=.B $X$X$X$X$X$X$X$X$X$X$X$X$X$X$X$X$X$X$X$X$X$X$X$X$X$X$X",
"$X$X$X$X$X$X$X$X$X$X$X$X$X$X$X$X$X$X$X$X$X$X$X$X$X$X$X$X7 i J } H * % & i $X$X$X$X$X$X$X$X$X$X$X$X$X$X$X$X$X$X$X$X$X$X$X$X$X$X$X",
"$X$X$X$X$X$X$X$X$X$X$X$X$X$X$X$X$X$X$X$X$X$X$X$X$X$X$X$X7 i i @@@@@ 3 6 5 $X$X$X$X$X$X$X$X$X$X$X$X$X$X$X$X$X$X$X$X$X$X$X$X$X$X$X",
"$X$X$X$X$X$X$X$X$X$X$X$X$X$X$X$X$X$X$X$X$X$X$X$X$X$X$X$X7 i i @@@@@ 3 6 5 $X$X$X$X$X$X$X$X$X$X$X$X$X$X$X$X$X$X$X$X$X$X$X$X$X$X$X",
"$X$X$X$X$X$X$X$X$X$X$X$X$X$X$X$X$X$X$X$X$X$X$X$X$X$X$X$X7 i i @@@@@ 3 6 5 $X$X$X$X$X$X$X$X$X$X$X$X$X$X$X$X$X$X$X$X$X$X$X$X$X$X$X",
"$X$X$X$X$X$X$X$X$X$X$X$X$X$X$X$X$X$X$X$X$X$X$X$X$X$X$X$X7 i i @@B@@ 3 6 5 $X$X$X$X$X$X$X$X$X$X$X$X$X$X$X$X$X$X$X$X$X$X$X$X$X$X$X",
"$X$X$X$X$X$X$X$X$X$X$X$X$X$X$X$X$X$X$X$X$X$X$X$X$X$X$X$X7 i i @@@@@ 3 6 5 $X$X$X$X$X$X$X$X$X$X$X$X$X$X$X$X$X$X$X$X$X$X$X$X$X$X$X",
"$X$X$X$X$X$X$X$X$X$X$X$X$X$X$X$X$X$X$X$X$X$X$X$X$X$X$X$X7 i i @@@@@ 3 6 5 $X$X$X$X$X$X$X$X$X$X$X$X$X$X$X$X$X$X$X$X$X$X$X$X$X$X$X",
"$X$X$X$X$X$X$X$X$X$X$X$X$X$X$X$X$X$X$X$X$X$X$X$X$X$X$X$X7 i i @@@@@ 3 6 5 $X$X$X$X$X$X$X$X$X$X$X$X$X$X$X$X$X$X$X$X$X$X$X$X$X$X$X",
"$X$X$X$X$X$X$X$X$X$X$X$X$X$X$X$X$X$X$X$X$X$X$X$X$X$X$X$Xg G { u.' a q q p $X$X$X$X$X$X$X$X$X$X$X$X$X$X$X$X$X$X$X$X$X$X$X$X$X$X$X",
"$X$X$X$X$X$X$X$X$X$X$X$X$X$X$X$X$X$X$X$X$X$X$X$X$X$X$X5 i d i r p p n d 9 4 $X$X$X$X$X$X$X$X$X$X$X$X$X$X$X$X$X$X$X$X$X$X$X$X$X$X",
"$X$X$X$X$X$X$X$X$X$X$X$X$X$X$X$X$X$X$X$X$X$X$X$X$X$X$X5 2 K ' u.| i 6 3 3 $X$X$X$X$X$X$X$X$X$X$X$X$X$X$X$X$X$X$X$X$X$X$X$X$X$X$X",
"$X$X$X$X$X$X$X$X$X$X$X$X$X$X$X$X$X$X$X$X$X$X$X$X$X$X5 4 g A y [ ' g a i i q $X$X$X$X$X$X$X$X$X$X$X$X$X$X$X$X$X$X$X$X$X$X$X$X$X$X",
"$X$X$X$X$X$X$X$X$X$X$X$X$X$X$X$X$X$X$X$X$X$X$X$X$X$X$X5 # 6 s S p + . . + $X$X$X$X$X$X$X$X$X$X$X$X$X$X$X$X$X$X$X$X$X$X$X$X$X$X$X",
"$X$X$X$X$X$X$X$X$X$X$X$X$X$X$X$X$X$X$X$X$X$X$X$X$X$X$X3 d J  .u. .G p p 7 2 $X$X$X$X$X$X$X$X$X$X$X$X$X$X$X$X$X$X$X$X$X$X$X$X$X$X",
"$X$X$X$X$X$X$X$X$X$X$X$X$X$X$X$X$X$X$X$X$X$X$X$X$X$X$X3 5 & 5 4 3 e & 2 6 5 $X$X$X$X$X$X$X$X$X$X$X$X$X$X$X$X$X$X$X$X$X$X$X$X$X$X",
"$X$X$X$X$X$X$X$X$X$X$X$X$X$X$X$X$X$X$X$X$X$X$X$X$Xp i g g g g g s s 7 3 5 i i $X$X$X$X$X$X$X$X$X$X$X$X$X$X$X$X$X$X$X$X$X$X$X$X$X",
"$X$X$X$X$X$X$X$X$X$X$X$X$X$X$X$X$X$X$X$X$X$X$X$Xp f A G J [ 1.p.i.p.o.^ A S p p i $X$X$X$X$X$X$X$X$X$X$X$X$X$X$X$X$X$X$X$X$X$X$X",
"$X$X$X$X$X$X$X$X$X$X$X$X$X$X$X$X$X$X$X$X$X$X$Xg g F H H / X.+.1.1.<.X.( J H F A s $X$X$X$X$X$X$X$X$X$X$X$X$X$X$X$X$X$X$X$X$X$X$X",
"$X$X$X$X$X$X$X$X$X$X$X$X$X$X$X$X$X$X$X$X$X$X$X$XF G H / ' [ { O.O.o.} / / Y H F $X$X$X$X$X$X$X$X$X$X$X$X$X$X$X$X$X$X$X$X$X$X$X$X",
"$X$X$X$X$X$X$X$X$X$X$X$X$X$X$X$X$X$X$X$X$X$X$X$X$X$X$X$X' } } .. .{ ] ' / $X$X$X$X$X$X$X$X$X$X$X$X$X$X$X$X$X$X$X$X$X$X$X$X$X$X$X"
};
