/* XPM */
static char *_662_f760b3a3451372d99e67def35ae75aa2448118ac502d9f7e7347c7e5f72fe4c1[] = {
/* columns rows colors chars-per-pixel */
"64 64 18 1 ",
"  c black",
". c #100F0E",
"X c #161600",
"o c #262625",
"O c #2E2D2C",
"+ c #A72D2B",
"@ c #051155",
"# c #6E6556",
"$ c #656463",
"% c #A72D2B",
"& c #E00000",
"* c #DF2D2B",
"= c #1697C2",
"- c #19A3D1",
"; c #47C0E9",
": c #6BCCED",
"> c #7FD3F0",
", c None",
/* pixels */
",,,,,,,,,,,OOOOOOOOOOOOOOO,,,,O...O,,,,OOOOOOOOOOOOOOO,,,,,,,,,,",
",,,,,,,,,,,,,###########,,,,,,O...O,,,,,,###########,,,,,,,,,,,,",
",,,,,,,,,,,,,,,OOOOOOOO,,,,,,,O...O,,,,,,,OOOOOOOO,,,,,,,,,,,,,,",
",,,,,,,,,,,oooo$$$$$,OOOOOOOOOOOOOOOOOOOOOOO,$$$$$oooo,,,,,,,,,,",
",,,,,,,,,,,o $$ $$$ $$ $$ $$ $$$ $$$ $$ $$ $$ $$$ $$ o,,,,,,,,,,",
",,,,,,,,,,,o ;; --- -- :: :: ::: ::: :: :: -- --- :: o,,,,,,,,,,",
",,,,,,,,,,,o ;; --- -- :: :: ::: ::: :: :: -- --- :: o,,,,,,,,,,",
",,,,,,,,,,,o ;; --- -- :: :: ::: ::: :: :: -- --- :: o,,,,,,,,,,",
",,,,,,,,,,,o $$ ------ $$ $$ o$$ $$o $$ $$ ------ $$ o,,,,,,,,,,",
",,,,,,,,,,,ooooooooooooooooooooooooooooooooooooooooooo,,,,,,,,,,",
",,,,,,,,,,,&****************ooooooooo****************&,,,,,,,,,,",
",,,,,,,,,,,,,%%%%%%%%%%%%,,++@-----@++,,%%%%%%%%%%%%,,,,,,,,,,,,",
",,,,,,,,,,,,,,,,,,,,,,,,,,,++@-----@++,,,,,,,,,,,,,,,,,,,,,,,,,,",
",,,,,,,,,,,,,,,,,,,,,,,,,,,++@-----@++,,,,,,,,,,,,,,,,,,,,,,,,,,",
",,,,,,,,++++++++++++++++++++++-----++++++++++++++++++++++,,,,,,,",
",,,,,,,,+@@@@@@@@@@@@@@@@@@@@@-----@@@@@@@@@@@@@@@@@@@@@+,,,,,,,",
",,,,,,,,+@@@==-------------------------------------==@@@+,,,,,,,",
",,,,,,,,+@@@===---->>>>>>>>>>>>>>>>>>>>>>>>>>>----===@@@+,,,,,,,",
",,,,,,,@@@@@===->>>---------->>>>>>>---------->>>-===@@@@@,,,,,,",
",,,,,,@@@-=-===-----------------------------------===-=-@@@,,,,,",
",,,,,,+++===@@=@@@@@@@@@@@@@@@XX=XX@@@@@@@@@@@@@@@=@@===+++,,,,,",
",,,,,,+++==XXXXXXXXXXXXXXXXXX=======XXXXXXXXXXXXXXXXXX==+++,,,,,",
",,,,,,+++@@,,,,,,,,,,,,,,,,,,,,,,,,,,,,,,,,,,,,,,,,,,,@@+++,,,,,",
",,,,,,+,,,,,,,,,,,,,,,,,,,,,,,,,,,,,,,,,,,,,,,,,,,,,,,,,,,+,,,,,",
",,,,,,,,,,,,,,,,,,,,,,,,,,,,,,,,,,,,,,,,,,,,,,,,,,,,,,,,,,,,,,,,",
",,,,,,,,,,,,,,,,,,,,,,,,,,,,,,,,,,,,,,,,,,,,,,,,,,,,,,,,,,,,,,,,",
",,,,,,,,,,,,,,,,,,,,,,,,,,,,,,,,,,,,,,,,,,,,,,,,,,,,,,,,,,,,,,,,",
",,,,,,,,,,,,,,,,,,,,,,,,,,,,,,,,,,,,,,,,,,,,,,,,,,,,,,,,,,,,,,,,",
",,,,,,,,,,,,,,,,,,,,,,,,,,,,,,,,,,,,,,,,,,,,,,,,,,,,,,,,,,,,,,,,",
",,,,,,,,,,,,,,,,,,,,,,,,,,,,,,,,,,,,,,,,,,,,,,,,,,,,,,,,,,,,,,,,",
",,,,,,,,,,,,,,,,,,,,,,,,,,,,,,,,,,,,,,,,,,,,,,,,,,,,,,,,,,,,,,,,",
",,,,,,,,,,,,,,,,,,,,,,,,,,,,,,,,,,,,,,,,,,,,,,,,,,,,,,,,,,,,,,,,",
",,,,,,,,,,,,,,,,,,,,,,,,,,,,,,,,,,,,,,,,,,,,,,,,,,,,,,,,,,,,,,,,",
",,,,,,,,,,,,,,,,,,,,,,,,,,,,,,,,,,,,,,,,,,,,,,,,,,,,,,,,,,,,,,,,",
",,,,,,,,,,,,,,,,,,,,,,,,,,,,,,,,,,,,,,,,,,,,,,,,,,,,,,,,,,,,,,,,",
",,,,,,,,,,,,,,,,,,,,,,,,,,,,,,,,,,,,,,,,,,,,,,,,,,,,,,,,,,,,,,,,",
",,,,,,,,,,,,,,,,,,,,,,,,,,,,,,,,,,,,,,,,,,,,,,,,,,,,,,,,,,,,,,,,",
",,,,,,,,,,,,,,,,,,,,,,,,,,,,,,,,,,,,,,,,,,,,,,,,,,,,,,,,,,,,,,,,",
",,,,,,,,,,,,,,,,,,,,,,,,,,,,,,,,,,,,,,,,,,,,,,,,,,,,,,,,,,,,,,,,",
",,,,,,,,,,,,,,,,,,,,,,,,,,,,,,,,,,,,,,,,,,,,,,,,,,,,,,,,,,,,,,,,",
",,,,,,,,,,,,,,,,,,,,,,,,,,,,,,,,,,,,,,,,,,,,,,,,,,,,,,,,,,,,,,,,",
",,,,,,,,,,,,,,,,,,,,,,,,,,,,,,,,,,,,,,,,,,,,,,,,,,,,,,,,,,,,,,,,",
",,,,,,,,,,,,,,,,,,,,,,,,,,,,,,,,,,,,,,,,,,,,,,,,,,,,,,,,,,,,,,,,",
",,,,,,,,,,,,,,,,,,,,,,,,,,,,,,,,,,,,,,,,,,,,,,,,,,,,,,,,,,,,,,,,",
",,,,,,,,,,,,,,,,,,,,,,,,,,,,,,,,,,,,,,,,,,,,,,,,,,,,,,,,,,,,,,,,",
",,,,,,,,,,,,,,,,,,,,,,,,,,,,,,,,,,,,,,,,,,,,,,,,,,,,,,,,,,,,,,,,",
",,,,,,,,,,,,,,,,,,,,,,,,,,,,,,,,,,,,,,,,,,,,,,,,,,,,,,,,,,,,,,,,",
",,,,,,,,,,,,,,,,,,,,,,,,,,,,,,,,,,,,,,,,,,,,,,,,,,,,,,,,,,,,,,,,",
",,,,,,,,,,,,,,,,,,,,,,,,,,,,,,,,,,,,,,,,,,,,,,,,,,,,,,,,,,,,,,,,",
",,,,,,,,,,,,,,,,,,,,,,,,,,,,,,,,,,,,,,,,,,,,,,,,,,,,,,,,,,,,,,,,",
",,,,,,,,,,,,,,,,,,,,,,,,,,,,,,,,,,,,,,,,,,,,,,,,,,,,,,,,,,,,,,,,",
",,,,,,,,,,,,,,,,,,,,,,,,,,,,,,,,,,,,,,,,,,,,,,,,,,,,,,,,,,,,,,,,",
",,,,,,,,,,,,,,,,,,,,,,,,,,,,,,,,,,,,,,,,,,,,,,,,,,,,,,,,,,,,,,,,",
",,,,,,,,,,,,,,,,,,,,,,,,,,,,,,,,,,,,,,,,,,,,,,,,,,,,,,,,,,,,,,,,",
",,,,,,,,,,,,,,,,,,,,,,,,,,,,,,,,,,,,,,,,,,,,,,,,,,,,,,,,,,,,,,,,",
",,,,,,,,,,,,,,,,,,,,,,,,,,,,,,,,,,,,,,,,,,,,,,,,,,,,,,,,,,,,,,,,",
",,,,,,,,,,,,,,,,,,,,,,,,,,,,,,,,,,,,,,,,,,,,,,,,,,,,,,,,,,,,,,,,",
",,,,,,,,,,,,,,,,,,,,,,,,,,,,,,,,,,,,,,,,,,,,,,,,,,,,,,,,,,,,,,,,",
",,,,,,,,,,,,,,,,,,,,,,,,,,,,,,,,,,,,,,,,,,,,,,,,,,,,,,,,,,,,,,,,",
",,,,,,,,,,,,,,,,,,,,,,,,,,,,,,,,,,,,,,,,,,,,,,,,,,,,,,,,,,,,,,,,",
",,,,,,,,,,,,,,,,,,,,,,,,,,,,,,,,,,,,,,,,,,,,,,,,,,,,,,,,,,,,,,,,",
",,,,,,,,,,,,,,,,,,,,,,,,,,,,,,,,,,,,,,,,,,,,,,,,,,,,,,,,,,,,,,,,",
",,,,,,,,,,,,,,,,,,,,,,,,,,,,,,,,,,,,,,,,,,,,,,,,,,,,,,,,,,,,,,,,",
",,,,,,,,,,,,,,,,,,,,,,,,,,,,,,,,,,,,,,,,,,,,,,,,,,,,,,,,,,,,,,,,"
};
