/* XPM */
static char *_70dfe338c6e45d5c1be99ebbffcc31f1fsWiwKPHmrdnBrV[] = {
/* columns rows colors chars-per-pixel */
"64 64 64 1 ",
"  c black",
". c #131413",
"X c #181713",
"o c #191917",
"O c #161919",
"+ c #1C1D1C",
"@ c #172014",
"# c #20201F",
"$ c #1D1F20",
"% c #1E2121",
"& c #222424",
"* c #262728",
"= c #26292A",
"- c #2A2D2E",
"; c #2D322D",
": c #2C2F31",
"> c #2E3133",
", c #313436",
"< c #333837",
"1 c #333638",
"2 c #35393A",
"3 c #393D3E",
"4 c #3B3F40",
"5 c #3D4242",
"6 c #414646",
"7 c #434846",
"8 c #4C4E47",
"9 c #434748",
"0 c #454A4A",
"q c #494E4E",
"w c #4B504F",
"e c #51544C",
"r c #4A4F50",
"t c #4D5253",
"y c #4F5358",
"u c #515656",
"i c #555A54",
"p c #595B55",
"a c #525758",
"s c #555A5A",
"d c #595E5E",
"f c #5C605F",
"g c #5A5F60",
"h c #5D6262",
"j c #626565",
"k c #646866",
"l c #626768",
"z c #656969",
"x c #696C6C",
"c c #75796D",
"v c #6C6F70",
"b c #6E7171",
"n c #727575",
"m c #767A70",
"M c #777979",
"N c #7B7D7D",
"B c #868686",
"V c #8D8D8D",
"C c #919587",
"Z c #91938E",
"A c #969595",
"S c #A0A29E",
"D c #B7B7B6",
"F c gray83",
/* pixels */
"zlhdhhfhhhhhhhhxjjjjjgjjjzzzjzzjjhfffjffhjjfffhjjjfppypddddpppyd",
"sggsfsuashssafshdggggsdhjgushfffffjhdfjfjkjkfkzzjzvxhpgdhhhddgdp",
"tsshuussuassrtauassggaaadaahdppddsddNBkhfhjkhzjjzzzxjjjdghghddgd",
"yastqustwuau5rwuasspsaatasdddssdpffdBVkkjjfzjkjxxzxvjjjjjjhhdgdd",
"hhaw0wttuytasttayssuyyyysdfjjjjjjjjjjjjjhjdjkkhkzjjjjjjjfjjjhddh",
"lhyuiaatt5tssswappyyyyyydddhjjkkjzzjjjjjjjjjkkhkzzpjjjdhfgggdddg",
"adaausstttattwr5yyyyryyyuspdhjjkzxxxzjjjjzjxlkhhjhjzhdhhfpgjggdg",
"aaaatttttuuq222212>1141113233444553pxzzkkzkzzxkhjjzzjjhjjjjjjgjj",
"tayttttttuu2=---:::*::::::=***:*--*1jvzxzxzzxxhhjjzvxzzzzjjxjgjj",
"yaadhfsashs2,<,,>>>4>>4>>:4:44::>>>>jzvvzxzxhhxhjjhzjzjjjfjjjjjj",
"ashhdssusss2,,,,4>:44>4,4>44:44:,>>>gzzzjxjzhzhhjhhjjzzjjggfdhjj",
"shshaaaassu<>,>>>>:>:::>>:::::::,:::sjjjhjdghhfhfddzjhhjdpyyyydp",
"ssasssssshy,-,-:::::*:::::::::::,>:>epggsgsfdfssypshdssyyryqyypy",
"aaattaaayst4>,:->::::4::::::::4:,::>rpypssudastwyuyyypyeryqqeyr8",
"tatttrrqrrr<>,--:::::>::::::::=4,:>>qyyqqtqtwttrqqqr8ryqryq9r99q",
"uattwtrrrt5<>,:-:::::>>:>::*::::,>>:qypytuqtwwrrreqyyyryreyrrq99",
"aauuttutsa55,,:::::>:>>::::=::::<:>-5aautt5aua5trqrtrrttatrq9qq9",
"sayyytt55y55,,:::::>:>>>::4=::::>;>-5wsu5aww5astrqqrqqttqqr99r0q",
"hhdssur55y5,,,>::>>>>,>>::::4::=>>>;tuuwasww5sutrqqr0q0q99999qq0",
"hlhdsar5555,>,:>>:>::>>>:=4:==:4>:;<5atuasuaagwwqqttq66669q9q9rq",
"hhhssa5ry5y<>,>>>:>:>>>>::::4===<:>:asgaasassgsattrqqq00q9rqrrrr",
"hhdhsarr5yy5>>>>:>:>>>>>==4===44>>::5aattt55ssuarq990966996q906q",
"ddasatr5ysy>,,:>>>>:>>>>:4::::4=<:>>5sstwatasasgttrq696666659660",
"sssatata5yy4,,>:--:>:>>>:::=4::=<>>>5ttttswsaaa5urq6556546334669",
"sdyyy5saaa55,1:::::::4=4==::=:44<:>>5yy5uuta5att0533222221133333",
"ssysayy55g52,,:>:>-->>:::4::4:=:<:>>555yt55tu5u5543>><>>>>:>,:,<",
"hsssssg5agg5>>:>>>:::>>>:::4=:=:<>>>5asyu55yt5a50522<<<<,,>,,;;,",
"hssssssaah5<,1>>:>>>>>>>::::4=44,>>>55s55ttt5a5u0322><<<>>,,>-==",
"hhsssyassss5><>>>>>>>>>>4:4::::><>>>5u5t5t5tr55553<>-->>>=:-*&&%",
"ddsysgssss54>,:>>:>>>>>>>:>:4>:4<>>>55555555555<22-====%=*=%&++.",
"sgsgdggghhs<,<:>>>>>>>>>44:::>4><<>>5555553555<<<<-%%==%%*&%$+O.",
"hhdggggghhs5,,:>>>>>>>4::::44:4:<,<<5a5u555555525<-=%=-==%%%%%+O",
"ghgggggggjg4:,:>>>>>,>1>,1,111114>,,5yr5y55y555555>-=--=-====&&%",
"lggggggggzh1#,:>>>>>>>>,,,,333314,,,5yty55a55t5t52<;=---=;---=;-",
"lggggggghjd1*,>>>>>>,:1>11:444314,,>5ytryy55555555<>->>:>>>>;<><",
"gggssaapsgs1,1>>>>>>>>>111:34332<,,,5tt5y5555t555<<-->>;;><>>>>;",
"ggyyiypuygy1,,>>>>>,,,,,4,,1113144<,5t5t554555555<<:::>>><>>>>>>",
"ggyguytyygy4>,>>>>>>,::>11,11131,<,,5y55555555525<<:::><<<<<<<><",
"gsyyyyyyydy1,,>:,>:>,,,,,,1111314><<55t555<5<5<5,<,>->><<<<<<<<<",
"ssggpuyysdy1,1::::*>:,:,,,,111214,<555t55555<5<5<<<,:>><<2522<<<",
"gyagsaatydy1,1:,::,:>>>,11>1112144>,5555555555>5<<<<=>><<2212222",
"ssasaaytysy1,,:::>>:,:>>>1111>21,,4>55555555<<>><<====:><<2<22,2",
"gsyatauuydy1>,:::>,:>>>>>1111>114>:>55554554<5<,<:===>:><2223322",
"gssaasuapgy3,,-::::,,,,,>1111112>,>455554545<55<<>>>>>:<<<2<3322",
"ssutaatuddy1,,:::::>,,,,>,,>,,1,4:>4445545<5544=<<><>>>><<<>2424",
"satuataaygy3:>:::::>:>::>>>>>,>,4>>:455544,54<<,<<><>>:>>><>2323",
"dsasaaatyyy1,,:,>>:>>>,,,,1-*>,,:>>44555<5<4<544<<<<<>><<<2<2554",
"ssaaauttyyy,,,,::::::::*->X7p1>>:>>>4555554555,4<<<<>>>>>22<<223",
"hssaautuuut<<<>@O..OooX+* DAp4>>,>>,5555453535322<2<==>=<22222<2",
"hddsuuuuagu3<<<%$O$$$$##- FS85>,,>>,555q553545333332<><>2432<224",
"hdssuuuassu3<<<$$$$$$#$#&#;ep4>1,:>>555555354522222<><><24222225",
"dsssssaasgs2<,,<>:44,>>1223,11>>,>,<55r555355533<<24<<<<24225422",
"hhgsggsgghy4,,>>::::::*4>>>>->>>,>>>5qq5505550532344432232<25444",
"lhsggggghls4>,>>::>44:::1,,:>,11,>>>5qq550555955434433424<<<2554",
"hhghsshgghs4:>:>4::4=:4*1,,->11:,,>,q50055505945443443342<243444",
"lhhhMngglls4%,>>::::::::,,>>:>1>>,,>55w5q5-05955544653323<255454",
"llsNAAnshhs<%,::>>:-:>4*>>>>>,,,<>>,50007u8656555550555523666555",
"hhsNAZbuglg5=>,:>:::-4:::>>,,,,,,>>>0rr03mC85959055005054455655r",
"hhhhnvsfghls4$,1::::-4**>>>:;>1,,>>>50r04jc06059505050555565r55r",
"hhhhsfhhgglhs5$>4,:,:::4>>>;,11>1,>,9wr06617606905ww55555565555r",
"lzhhhhhhhfhhgs4$,1:,,,>>,,>::,,,<,,,9tw078900070070w5w555555r5yy",
"hhhlhfhhhhshggy-o,,::,,,>:,::,,1,:>>0twq0qqqq0wwttwtw555t5u5ryya",
"ayashhhhfssydgh5&#,,,1::2,,,11,,,>::8qqq9q7qwwtuitttw5555awwtayt",
"yytttshhhsssyhhh9#*1-+oo-2,,,1,><,,:6qwqqq8wwutuitft5wt5wauaaaaa"
};
