/* XPM */
static char *result[] = {
/* columns rows colors chars-per-pixel */
"100 100 8 1 ",
"  c black",
". c gray45",
"X c red",
"o c yellow",
"O c blue",
"+ c gray86",
"@ c #DDDDDD",
"# c white",
/* pixels */
"##########ooooooooo #########################XXXXXXXXXX#########################         o##########",
"#         oooooooo                           XXXXXXXXXX                                 oo         #",
"#         ooooooo                            XXXXXXXXXX                                ooo         #",
"#         oooooo                             XXXXXXXXXX                               oooo         #",
"#         ooooo                              XXXXXXXXXX                              ooooo         #",
"#         oooo                               XXXXXXXXXX                             oooooo         #",
"#         ooo                                XXXXXXXXXX                            ooooooo         #",
"#         oo                                 XXXXXXXXXX                           oooooooo         #",
"#         o                                  XXXXXXXXXX                          ooooooooo         #",
"#                                            XXXXXXXXXX                         oooooooooo         #",
"#                  o                                                            ooooooooo          #",
"#                 oo                                                            oooooooo           #",
"#                ooo                                                            ooooooo            #",
"#               oooo                                                            oooooo             #",
"#              ooooo                                                            ooooo              #",
"#             oooooo                                                            oooo               #",
"#            ooooooo                                                            ooo                #",
"#           oooooooo                                                            oo                 #",
"#          ooooooooo                                                            o                  #",
"#         oooooooooo                                                                               #",
"#         ooooooooo                                                                      o         #",
"#         oooooooo                                                                      oo         #",
"#         ooooooo                                                                      ooo         #",
"#         oooooo                                                                      oooo         #",
"#         ooooo                 +###############################@                    ooooo         #",
"#         oooo                  +###############################@                   oooooo         #",
"#         ooo                   +###############################@                  ooooooo         #",
"#         oo                    +###############################@                 oooooooo         #",
"#         o                     +###############################@                ooooooooo         #",
"#                               +#####.                                         oooooooooo         #",
"#                  o            +#####.                                         ooooooooo          #",
"#                 oo            +#####.                                         oooooooo           #",
"#                ooo            +#####.                                         ooooooo            #",
"#               oooo            +#####.                                         oooooo             #",
"#              ooooo            +#####.                                         ooooo              #",
"#             oooooo            +#####.                                         oooo               #",
"#            ooooooo            +#####.                                         ooo                #",
"#           oooooooo            +#####.                                         oo                 #",
"#          ooooooooo            +#####.                                         o                  #",
"#         oooooooooo            +#####.                                                            #",
"#         ooooooooo             +#####.                                                  o         #",
"#         oooooooo              +#####.                                                 oo         #",
"#         ooooooo               +#####.                                                ooo         #",
"#         oooooo                +#############################@                       oooo         #",
"#         ooooo                 +#############################@                      ooooo         #",
"#         oooo                  +#############################@                     oooooo         #",
"#         ooo                   +#############################@                    ooooooo         #",
"#         oo                    +#############################@                   oooooooo         #",
"#         o                     +#####.                                          ooooooooo         #",
"#                               +#####.                                         oooooooooo         #",
"#                  o            +#####.                                         ooooooooo          #",
"#                 oo            +#####.                                         oooooooo           #",
"#                ooo            +#####.                                         ooooooo            #",
"#               oooo            +#####.                                         oooooo             #",
"#              ooooo            +#####.                                         ooooo              #",
"#             oooooo            +#####.                                         oooo               #",
"#            ooooooo            +#####.                                         ooo                #",
"#           oooooooo            +#####.                                         oo                 #",
"#          ooooooooo            +#####.                                         o                  #",
"#         oooooooooo            +#####.                                                            #",
"#         ooooooooo             +#####.                                                  o         #",
"#         oooooooo              +#####.                                                 oo         #",
"#         ooooooo               +#####.                                                ooo         #",
"#         oooooo                +################################.                    oooo         #",
"#         ooooo                 +################################.                   ooooo         #",
"#         oooo                  +################################.                  oooooo         #",
"#         ooo                   +################################.                 ooooooo         #",
"#         oo                    +################################.                oooooooo         #",
"#         o                                                                      ooooooooo         #",
"#                                                                               oooooooooo         #",
"#                  o                                                            ooooooooo          #",
"#                 oo                                                            oooooooo           #",
"#                ooo                                                            ooooooo            #",
"#               oooo                                                            oooooo             #",
"#              ooooo                                                            ooooo              #",
"#             oooooo                                                            oooo               #",
"#            ooooooo                                                            ooo                #",
"#           oooooooo                                                            oo                 #",
"#          ooooooooo                                                            o                  #",
"#         oooooooooo                                                                               #",
"#         ooooooooo                                                                      o         #",
"#         oooooooo                                                                      oo         #",
"#         ooooooo                                                                      ooo         #",
"#         oooooo                                                                      oooo         #",
"#         ooooo                                                                      ooooo         #",
"#         oooo                                                                      oooooo         #",
"#         ooo                                                                      ooooooo         #",
"#         oo                                                                      oooooooo         #",
"#         o                                                                      ooooooooo         #",
"#                                                                               oooooooooo         #",
"#                  o                         OOOOOOOOOO                         ooooooooo          #",
"#                 oo                         OOOOOOOOOO                         oooooooo           #",
"#                ooo                         OOOOOOOOOO                         ooooooo            #",
"#               oooo                         OOOOOOOOOO                         oooooo             #",
"#              ooooo                         OOOOOOOOOO                         ooooo              #",
"#             oooooo                         OOOOOOOOOO                         oooo               #",
"#            ooooooo                         OOOOOOOOOO                         ooo                #",
"#           oooooooo                         OOOOOOOOOO                         oo                 #",
"#          ooooooooo                         OOOOOOOOOO                         o                  #",
"##########oooooooooo#########################OOOOOOOOOO#########################          ##########"
};
