/* XPM */
static char *_716_3b691d6e736b77277231df903db110fa8415f51d51c8d0f3dbc5d3498984a644[] = {
/* columns rows colors chars-per-pixel */
"100 100 2 1 ",
"  c black",
". c None",
/* pixels */
"....................................................................................................",
"....................................................................................................",
"....................................................................................................",
"....................................................................................................",
"....................................................................................................",
"....................................................................................................",
"....................................................................................................",
"....................................................................................................",
"..............................................      ................................................",
".............................................        ...............................................",
"............................................   .  ..  ..............................................",
"...........................................   ..  ...  .............................................",
"..........................................   ...  ....  ............................................",
".........................................   ....  .....  ...........................................",
"........................................   .....  ......  ..........................................",
".......................................   ......  .......  .........................................",
"......................................   .......  ........   .......................................",
".....................................   ........  .........   ......................................",
"....................................   .........  ..........   .....................................",
"...................................   ..........  ...........   ....................................",
"..................................   ...........  ............   ...................................",
".................................   ............  .............   ..................................",
"................................   .............  ..............   .................................",
"...............................   ..............  ...............   ................................",
"..............................   ...............  ................   ...............................",
".............................   ................  .................   ..............................",
"............................   .................  ...................  .............................",
"...........................   ..................  ....................  ............................",
"..........................   ...................  .....................  ...........................",
".........................   ....................  ......................  ..........................",
"........................   .....................  .......................  .........................",
".......................   ......................  ........................  ........................",
"......................   .......................  .........................  .......................",
".....................   ............. ..........  ..........................  ......................",
"....................   .........................  ...........................  .....................",
"...................   ..........................  ............................   ...................",
"..................   ...........................  .............................   ..................",
".................  .............................. ..............................   .................",
"................  .............. ................................................   ................",
"...............  ...............................  ................................   ...............",
"..............  ................................  .................................   ..............",
".............  ............... ............... .... ................................   .............",
"............  ..............................   ....    ..............................   ............",
"...........  ..............................   .......  ...............................   ...........",
"..........  ............................................................................  ..........",
".........  ............................................. ................................  .........",
"........  ..............................  ..............  ................................  ........",
".......  ...............................  ............... .................................  .......",
"......  ................................ ................  .................................  ......",
"......  ................................ ................  .................................  ......",
"......                             .   .....................                                  ......",
"......                             .  .. ................  .  ..                              ......",
"......  ................................ ................  .................................  ......",
"......   ................... ...........  ............... ............... .................  .......",
"........  ..............................  ..............  ................................  ........",
".........  ..............................  .............  ..............................   .........",
"..........  ...........................................................................   ..........",
"...........  ........................................  ...............................   ...........",
"............  ..............................   ....    ..............................   ............",
".............  ............... ..............  ....  ...............................   .............",
"..............  ................................  .................................   ..............",
"...............  .............. ................  ................................   ...............",
"................   .............................  ...............................  .................",
".................   ............ ...............................................  ..................",
"..................   ...........................  ................... .........  ...................",
"...................   ..........................  .................. .........  ....................",
"....................   .........................  ............ ..............  .....................",
".....................   ............. ..........  ..........................  ......................",
"......................   ............. .........  ........................   .......................",
".......................   ......................  .......................   ........................",
"........................   .....................  ......................   .........................",
".........................   .................. .  .....................   ..........................",
"..........................   ...................  ....................   ...........................",
"...........................   ..................  ...................   ............................",
".............................  .................  ..................   .............................",
"..............................  ................  .................  ...............................",
"...............................  ...............  ................  ................................",
"................................  ..............  ...............  .................................",
".................................  .............  ..............  ..................................",
"..................................  ............  .............  ...................................",
"...................................  ...........  ............  ....................................",
"....................................  ..........  ..........   .....................................",
".....................................  .........  .........   ......................................",
"......................................   .......  ........   .......................................",
".......................................   ......  .......   ........................................",
"........................................   .....  ......   .........................................",
".........................................   ....  .....   ..........................................",
"..........................................   ...  ....   ...........................................",
"...........................................   ..  ...  .............................................",
"............................................   .  ..  ..............................................",
".............................................        ...............................................",
"..............................................      ................................................",
"....................................................................................................",
"....................................................................................................",
"....................................................................................................",
"....................................................................................................",
"....................................................................................................",
"....................................................................................................",
"....................................................................................................",
"...................................................................................................."
};
